# xmcd
#
# Track frame offsets: 
#        150
#        16768
#        32576
#        49605
#        67313
#        90561
#        122101
#        147216
#        173941
#        199933
#        226738
#        254786
#        281804
#
# Disc length: 3990 seconds
#
# Revision: 0
# Processed by: cddbd v1.5.2PL0 Copyright (c) Steve Scherf et al.
# Submitted via: ExactAudioCopy v0.99pb3
#
DISCID=bc0f940d
DTITLE=Cascada - What Hurts The Most (Maxi-Single)
DYEAR=2007
DGENRE=Pop/Rock
TTITLE0=What Hurts The Most (Radio Mix U.S.)
TTITLE1=What Hurts The Most (Spencer and Hill Radio Edit)
TTITLE2=What Hurts The Most (Topmodelz Radio Edit)
TTITLE3=What Hurts The Most (Yanou's Candlelight Mix)
TTITLE4=What Hurts The Most (Club Mix)
TTITLE5=What Hurts The Most (Spencer and Hill Remix)
TTITLE6=What Hurts The Most (Topmodelz Remix)
TTITLE7=What Hurts The Most (K-Klass Remix)
TTITLE8=What Hurts The Most (Flip and Fill Remix)
TTITLE9=What Hurts The Most (Fugitives Mega Remix)
TTITLE10=What Hurts The Most (Darren Styles Remix)
TTITLE11=What Hurts The Most (Spencer and Hill Dub Mix)
TTITLE12=Last Christmas
EXTD=
EXTT0=
EXTT1=
EXTT2=
EXTT3=
EXTT4=
EXTT5=
EXTT6=
EXTT7=
EXTT8=
EXTT9=
EXTT10=
EXTT11=
EXTT12=
PLAYORDER=
